<?xml version="1.0" encoding="utf-8"?>
<!-- Generator: Adobe Illustrator 17.0.0, SVG Export Plug-In . SVG Version: 6.00 Build 0)  -->
<!DOCTYPE svg PUBLIC "-//W3C//DTD SVG 1.1//EN" "http://www.w3.org/Graphics/SVG/1.1/DTD/svg11.dtd">
<svg version="1.1" id="Calque_1" xmlns="http://www.w3.org/2000/svg" xmlns:xlink="http://www.w3.org/1999/xlink" x="0px" y="0px"
	 width="935.43px" height="935.43px" viewBox="0 0 935.43 935.43" enable-background="new 0 0 935.43 935.43" xml:space="preserve">
<path fill="#FBAF56" d="M894.615,771.803c0,59.006-47.834,106.84-106.84,106.84H167.066c-59.006,0-106.84-47.834-106.84-106.84
	V151.094c0-59.006,47.834-106.84,106.84-106.84h620.709c59.006,0,106.84,47.834,106.84,106.84V771.803z"/>
<g>
	<path fill="none" stroke="#FFFFFF" stroke-width="7" stroke-miterlimit="10" d="M398.935,478.075H211.865l12.754,22.581v216.86
		c0,46.582,37.762,84.345,84.345,84.345h337.201c46.582,0,84.345-37.762,84.345-84.345V503.401l14.89-25.326H551.593"/>
	<g>
		<path fill="none" stroke="#FFFFFF" stroke-width="7" stroke-miterlimit="10" d="M637.743,167.74
			c-31.466-0.34-62.96-1.459-94.388-0.724c-18.6,0.435-37.095,3.799-55.637,5.846c-23.549,4.143-25.388,3.762-29.67-1.173
			c-1.081-15.066-3.828-28.132-4.909-43.198c-4.311-2.431-8.528-6.618-12.954-6.931c-9.601-0.681-19.809-1.128-28.86,1.497
			c-15.411,4.47-33.718,5.356-40.629,24.799c6.502,13.734,11.855,25.595,16.598,39.932c-0.443,5.118-5,7.855-9.538,9.527
			c-32.115,11.831-64.387,23.23-96.608,34.766c-12.611,6.525-25.223,13.05-37.834,19.575c-7.788,5.286-15.576,10.572-23.364,15.858
			c-13.311,9.281-25.835,19.213-28.855,37.019c-0.133,1.914-0.266,3.828-0.399,5.741c163.66-38.115,327.319-76.229,490.973-114.368
			c1.667-0.388,3.254-1.117,4.879-1.686C676.352,173.341,656.555,171.517,637.743,167.74z"/>
		<path fill="#FFFFFF" d="M706.488,221.059c5.872-12.787-0.085-20.588-19.94-26.84c-1.625,0.569-3.212,1.298-4.879,1.686
			c-163.654,38.139-327.314,76.253-490.973,114.368c-16.91,16.752-18.755,21.844-5,32.638L706.488,221.059z"/>
	</g>
	<path fill="#FFFFFF" d="M198.467,526.576c2.958,1.367,5.924,2.35,8.886,3.5c1.801,1.994,3.602,3.987,5.403,5.981
		c0.308,0.431,0.619,0.825,0.93,1.213c-0.311-0.388-0.622-0.782-0.93-1.213c0.857,1.74,1.726,3.337,2.567,5.259
		c0.999,2.282,1.973,4.848,2.122,11.39c0.736,7.593,2.046,7.236,3.322,5.681c1.309-1.595,1.508-7.202,1.45-13.218
		c-0.024-2.532-0.015-5.072-0.021-7.608c-0.004-11.894,0.197-19.153,0.193-31.046c-0.003-0.589-0.006-1.178-0.008-1.766
		c-0.227-2.901,0.064,0.307-0.163-2.594c-0.446-1.185-9.047-14.142-9.494-14.148c-15.809-0.22-24.187-0.262-39.996-0.193
		c-0.814,0.004-1.645,0.053-2.441,1.855c-1.865,3.978-2.654,18.795-0.626,27.633c0.358,1.441,0.742,2.201,1.286,2.92
		c0.002,0.444,4.127,2.527,4.171,2.74L198.467,526.576z M171.48,491.207C171.48,491.207,171.48,491.207,171.48,491.207"/>
	<path fill="#FFFFFF" d="M779.724,522.959c0.044-0.213,4.169-2.296,4.171-2.74c0.543-0.718,0.928-1.479,1.286-2.92
		c2.028-8.838,1.239-23.655-0.626-27.633c-0.796-1.802-1.627-1.851-2.441-1.855c-15.81-0.069-24.187-0.027-39.996,0.193
		c-0.447,0.006-8.635,13.497-9.082,14.682c-0.227,2.901,0.064-0.306-0.163,2.594c-0.003,0.589-0.008-1.085-0.011-0.496
		c-0.004,11.893-0.213,20.882-0.217,32.776c-0.006,2.536,0.004,5.077-0.021,7.608c-0.058,6.016,0.141,11.622,1.45,13.218
		c1.276,1.555,2.586,1.912,3.322-5.681c0.149-6.542,1.123-9.108,2.122-11.39c0.841-1.922,1.71-3.518,2.567-5.259
		c-0.308,0.431-0.619,0.825-0.93,1.213c0.311-0.388,0.622-0.782,0.93-1.213c1.801-1.993,3.602-3.987,5.403-5.981
		c2.962-1.15,5.927-2.133,8.886-3.5L779.724,522.959z M783.36,491.207C783.36,491.207,783.36,491.207,783.36,491.207"/>
	<path fill="#FFFFFF" d="M400.364,540.899c0,12.002-9.707,21.731-21.68,21.731H271.98c-11.974,0-21.68-9.729-21.68-21.731v-1.075
		c0-12.002,9.707-21.731,21.68-21.731h106.705c11.974,0,21.68,9.729,21.68,21.731V540.899z"/>
	<path fill="#FFFFFF" d="M704.644,613.146c0,12.002-9.854,21.731-22.011,21.731H574.302c-12.156,0-22.011-9.729-22.011-21.731
		v-1.075c0-12.002,9.854-21.731,22.011-21.731h108.331c12.156,0,22.011,9.729,22.011,21.731V613.146z"/>
	<g>
		<path fill="#FFFFFF" d="M546.086,408.447c0,12.002-9.005,21.731-20.114,21.731h-98.998c-11.109,0-20.114-9.729-20.114-21.731
			v-1.075c0-12.002,9.005-21.731,20.114-21.731h98.998c11.109,0,20.114,9.729,20.114,21.731V408.447z"/>
		<path fill="#FFFFFF" d="M542.934,346.898c0,12.002-8.598,21.731-19.205,21.731h-94.521c-10.607,0-19.205-9.729-19.205-21.731
			v-1.075c0-12.002,8.598-21.731,19.205-21.731h94.521c10.607,0,19.205,9.729,19.205,21.731V346.898z"/>
		<path fill="#FFFFFF" d="M545.895,755.337c0,12.002-9.005,21.731-20.114,21.731h-98.998c-11.109,0-20.114-9.729-20.114-21.731
			V470.092c0-12.002,9.005-21.731,20.114-21.731h98.998c11.109,0,20.114,9.729,20.114,21.731V755.337z"/>
	</g>
	<path fill="#FFFFFF" d="M400.158,755.337V602.544c0-12.002-9.707-21.731-21.68-21.731H271.774c-10.324,0-18.946,7.24-21.13,16.926
		v116.779c0,33.357,25.97,60.616,58.723,62.55h69.112C390.452,777.068,400.158,767.338,400.158,755.337z"/>
	<path fill="#FFFFFF" d="M704.318,714.517v-41.969c-1.136-10.948-10.505-19.489-21.894-19.489H574.093
		c-12.156,0-22.011,9.729-22.011,21.731v80.547c0,12.002,9.854,21.731,22.011,21.731h71.503
		C678.348,775.134,704.318,747.874,704.318,714.517z"/>
</g>
</svg>
