<?xml version="1.0" encoding="utf-8"?>
<!-- Generator: Adobe Illustrator 17.0.0, SVG Export Plug-In . SVG Version: 6.00 Build 0)  -->
<!DOCTYPE svg PUBLIC "-//W3C//DTD SVG 1.1//EN" "http://www.w3.org/Graphics/SVG/1.1/DTD/svg11.dtd">
<svg version="1.1" id="Calque_1" xmlns="http://www.w3.org/2000/svg" xmlns:xlink="http://www.w3.org/1999/xlink" x="0px" y="0px"
	 width="935.43px" height="935.43px" viewBox="0 0 935.43 935.43" enable-background="new 0 0 935.43 935.43" xml:space="preserve">
<path fill="none" stroke="#FFFFFF" stroke-width="15" stroke-miterlimit="10" d="M356.944,479.322h-228.46l16.187,28.659v275.224
	c0,59.119,47.925,107.044,107.044,107.044h427.952c59.119,0,107.044-47.925,107.044-107.044V511.464l18.897-32.142h-234.52"/>
<g>
	<path fill="none" stroke="#FFFFFF" stroke-width="15" stroke-miterlimit="10" d="M668.98,104.455
		c-39.935-0.431-79.904-1.851-119.79-0.919c-23.605,0.552-47.079,4.821-70.611,7.419c-29.886,5.257-32.22,4.775-37.655-1.489
		c-1.372-19.12-4.859-35.703-6.23-54.824c-5.472-3.085-10.824-8.399-16.44-8.797c-12.185-0.864-25.14-1.432-36.627,1.9
		c-19.559,5.673-42.793,6.798-51.564,31.473c8.252,17.43,15.045,32.483,21.065,50.679c-0.563,6.495-6.346,9.969-12.105,12.091
		c-40.759,15.015-81.715,29.481-122.609,44.122c-16.006,8.281-32.011,16.562-48.017,24.843
		c-9.884,6.709-19.768,13.418-29.652,20.127c-16.893,11.778-32.788,24.384-36.62,46.982c-0.169,2.429-0.338,4.858-0.507,7.287
		c207.706-48.373,415.412-96.744,623.11-145.148c2.115-0.493,4.13-1.417,6.192-2.14C717.98,111.563,692.855,109.249,668.98,104.455z
		"/>
	<path fill="#FFFFFF" d="M756.226,172.124c7.453-16.228-0.108-26.129-25.307-34.064c-2.062,0.723-4.077,1.647-6.192,2.14
		c-207.698,48.404-415.405,96.775-623.11,145.148c-21.461,21.26-23.802,27.723-6.346,41.422L756.226,172.124z"/>
</g>
<path fill="#FFFFFF" d="M111.48,540.876c3.755,1.735,7.518,2.982,11.277,4.441c2.286,2.53,4.571,5.06,6.857,7.59
	c0.391,0.547,0.785,1.047,1.18,1.539c-0.395-0.492-0.79-0.992-1.18-1.539c1.087,2.209,2.191,4.235,3.258,6.674
	c1.268,2.896,2.504,6.153,2.692,14.456c0.935,9.637,2.597,9.183,4.217,7.21c1.662-2.025,1.914-9.14,1.841-16.775
	c-0.031-3.213-0.019-6.437-0.026-9.656c-0.005-15.095,0.249-24.308,0.244-39.402c-0.004-0.747-0.007-1.495-0.01-2.242
	c-0.289-3.682,0.081,0.389-0.207-3.293c-0.566-1.504-11.482-17.948-12.049-17.956c-20.064-0.28-30.696-0.333-50.761-0.245
	c-1.033,0.005-2.088,0.068-3.098,2.354c-2.367,5.049-3.368,23.853-0.795,35.07c0.454,1.828,0.942,2.794,1.632,3.705
	c0.002,0.563,5.237,3.207,5.293,3.477L111.48,540.876z M77.23,495.988L77.23,495.988"/>
<path fill="#FFFFFF" d="M849.172,536.286c0.056-0.27,5.291-2.914,5.293-3.477c0.689-0.912,1.177-1.877,1.632-3.705
	c2.574-11.217,1.572-30.021-0.795-35.07c-1.01-2.287-2.065-2.35-3.098-2.354c-20.064-0.088-30.696-0.034-50.761,0.245
	c-0.567,0.008-10.96,17.129-11.526,18.633c-0.289,3.682,0.081-0.389-0.207,3.293c-0.003,0.747-0.011-1.377-0.014-0.63
	c-0.005,15.094-0.27,26.502-0.275,41.597c-0.007,3.219,0.005,6.443-0.026,9.656c-0.074,7.635,0.179,14.75,1.841,16.775
	c1.62,1.973,3.282,2.427,4.217-7.21c0.189-8.303,1.425-11.56,2.693-14.456c1.068-2.439,2.171-4.465,3.258-6.674
	c-0.391,0.547-0.785,1.047-1.18,1.539c0.395-0.492,0.79-0.992,1.18-1.539c2.286-2.53,4.571-5.06,6.857-7.59
	c3.759-1.459,7.523-2.707,11.277-4.441L849.172,536.286z M853.787,495.988L853.787,495.988"/>
<path fill="#EF3E3D" d="M357.802,559.054c0,15.232-12.319,27.579-27.515,27.579H204.864c-15.196,0-27.515-12.348-27.515-27.579
	v-1.365c0-15.232,12.319-27.579,27.515-27.579h125.423c15.196,0,27.515,12.348,27.515,27.579L357.802,559.054L357.802,559.054z"/>
<path fill="#35B459" d="M765.994,650.745c0,15.232-12.507,27.579-27.934,27.579H610.572c-15.428,0-27.934-12.348-27.934-27.579
	v-1.365c0-15.232,12.507-27.579,27.934-27.579h127.487c15.428,0,27.934,12.348,27.934,27.579L765.994,650.745L765.994,650.745z"/>
<g>
	<path fill="#FBAF56" d="M552.411,390.955c0,15.232-11.429,27.579-25.528,27.579H401.242c-14.099,0-25.528-12.348-25.528-27.579
		v-1.365c0-15.232,11.429-27.579,25.528-27.579h125.642c14.099,0,25.528,12.348,25.528,27.579L552.411,390.955L552.411,390.955z"/>
	<path fill="#FBAF56" d="M548.417,312.841c0,15.232-10.912,27.579-24.373,27.579H404.083c-13.461,0-24.373-12.348-24.373-27.579
		v-1.365c0-15.232,10.912-27.579,24.373-27.579h119.96c13.461,0,24.373,12.348,24.373,27.579L548.417,312.841L548.417,312.841z"/>
	<path fill="#FBAF56" d="M552.412,831.204c0,15.232-11.429,27.579-25.528,27.579H401.242c-14.099,0-25.528-12.348-25.528-27.579
		V469.19c0-15.232,11.429-27.579,25.528-27.579h125.642c14.099,0,25.528,12.348,25.528,27.579L552.412,831.204L552.412,831.204z"/>
</g>
<path fill="#EF3E3D" d="M357.453,831.204V637.289c0-15.232-12.319-27.579-27.515-27.579H204.516
	c-13.102,0-24.045,9.188-26.817,21.481v148.208c0,42.334,32.959,76.93,74.527,79.385h77.712
	C345.134,858.783,357.453,846.435,357.453,831.204z"/>
<path fill="#35B459" d="M765.92,768.845v-53.264c-1.442-13.895-13.332-24.734-27.787-24.734H610.647
	c-15.428,0-27.935,12.348-27.935,27.579V820.65c0,15.232,12.507,27.579,27.935,27.579h80.746
	C732.961,845.776,765.92,811.18,765.92,768.845z"/>
</svg>
